<?xml version="1.0" standalone="no"?>
<!DOCTYPE svg PUBLIC "-//W3C//DTD SVG 20010904//EN"
 "http://www.w3.org/TR/2001/REC-SVG-20010904/DTD/svg10.dtd">
<svg version="1.0" xmlns="http://www.w3.org/2000/svg"
 width="190.000000pt" height="173.000000pt" viewBox="0 0 190.000000 173.000000"
 preserveAspectRatio="xMidYMid meet">

<g transform="translate(0.000000,173.000000) scale(0.100000,-0.100000)"
fill="#000000" stroke="none">
<path d="M914 1573 c-15 -27 -42 -73 -59 -103 -18 -30 -75 -129 -127 -220 -53
-91 -121 -210 -153 -265 -78 -135 -192 -332 -282 -490 -41 -72 -78 -134 -82
-140 -16 -21 -92 -169 -79 -155 38 45 497 592 637 760 90 107 170 195 178 195
8 0 31 -37 54 -90 23 -49 72 -160 111 -245 76 -169 152 -338 173 -385 8 -16
32 -70 55 -119 22 -49 38 -91 36 -93 -2 -3 -272 -50 -600 -106 l-595 -102 424
-3 c234 -1 616 -1 850 0 l425 3 -68 120 c-71 123 -161 280 -294 510 -199 345
-274 475 -308 535 -20 36 -53 92 -72 125 -19 33 -68 117 -109 188 -40 70 -76
127 -81 127 -4 0 -19 -21 -34 -47z"/>
<path d="M821 663 c-6 -21 -29 -113 -52 -205 -35 -143 -44 -168 -60 -168 -12
0 -19 -7 -19 -21 0 -18 5 -20 52 -17 41 2 54 7 56 21 2 10 -3 17 -13 17 -13 0
-15 7 -9 38 15 80 17 82 87 82 l64 0 12 -42 c7 -24 15 -51 17 -60 4 -12 0 -18
-10 -18 -9 0 -16 -9 -16 -21 0 -18 5 -20 52 -17 41 2 54 7 56 20 2 13 -3 18
-17 18 -23 0 -18 -14 -80 233 -22 87 -43 162 -46 167 -3 6 -19 10 -35 10 -25
0 -30 -5 -39 -37z m71 -104 c26 -111 26 -109 -33 -109 -48 0 -51 1 -45 23 3
12 13 55 23 95 9 40 21 71 27 69 6 -2 18 -37 28 -78z"/>
</g>
</svg>
